<mxfile host="Electron" modified="2024-03-25T14:30:52.099Z" agent="Mozilla/5.0 (Windows NT 10.0; Win64; x64) AppleWebKit/537.36 (KHTML, like Gecko) draw.io/23.0.2 Chrome/120.0.6099.109 Electron/28.1.0 Safari/537.36" etag="aVRePFQ5_UvCm3FmyCkg" version="23.0.2" type="device">
  <diagram name="Page-1" id="0k3OAPtzxN85hAbiLKYr">
    <mxGraphModel dx="1235" dy="787" grid="1" gridSize="10" guides="1" tooltips="1" connect="1" arrows="1" fold="1" page="1" pageScale="1" pageWidth="827" pageHeight="1169" math="0" shadow="0">
      <root>
        <mxCell id="0" />
        <mxCell id="1" parent="0" />
        <mxCell id="ty4UK9upePrmjLvFGg2Z-1" value="" style="ellipse;whiteSpace=wrap;html=1;" parent="1" vertex="1">
          <mxGeometry x="354" y="100" width="120" height="80" as="geometry" />
        </mxCell>
        <mxCell id="ty4UK9upePrmjLvFGg2Z-2" value="Parcourir le catalogue" style="text;html=1;align=center;verticalAlign=middle;whiteSpace=wrap;rounded=0;" parent="1" vertex="1">
          <mxGeometry x="371" y="112.5" width="86" height="55" as="geometry" />
        </mxCell>
        <mxCell id="ty4UK9upePrmjLvFGg2Z-5" value="" style="ellipse;whiteSpace=wrap;html=1;" parent="1" vertex="1">
          <mxGeometry x="580" y="100" width="120" height="80" as="geometry" />
        </mxCell>
        <mxCell id="ty4UK9upePrmjLvFGg2Z-6" value="Commander&amp;nbsp;" style="text;html=1;align=center;verticalAlign=middle;whiteSpace=wrap;rounded=0;" parent="1" vertex="1">
          <mxGeometry x="597" y="117.5" width="86" height="45" as="geometry" />
        </mxCell>
        <mxCell id="ty4UK9upePrmjLvFGg2Z-7" value="" style="ellipse;whiteSpace=wrap;html=1;" parent="1" vertex="1">
          <mxGeometry x="460" y="260" width="120" height="80" as="geometry" />
        </mxCell>
        <mxCell id="ty4UK9upePrmjLvFGg2Z-8" value="Ajouter un moyens de paiement" style="text;html=1;align=center;verticalAlign=middle;whiteSpace=wrap;rounded=0;" parent="1" vertex="1">
          <mxGeometry x="477" y="267.5" width="86" height="65" as="geometry" />
        </mxCell>
        <mxCell id="ty4UK9upePrmjLvFGg2Z-21" value="Acheteur" style="shape=umlActor;verticalLabelPosition=bottom;verticalAlign=top;html=1;outlineConnect=0;" parent="1" vertex="1">
          <mxGeometry x="160" y="270" width="30" height="60" as="geometry" />
        </mxCell>
        <mxCell id="akRX0uBO8aCFeyzsHtay-5" value="" style="endArrow=none;html=1;rounded=0;" edge="1" parent="1">
          <mxGeometry width="50" height="50" relative="1" as="geometry">
            <mxPoint x="190" y="277.5" as="sourcePoint" />
            <mxPoint x="340" y="157.5" as="targetPoint" />
          </mxGeometry>
        </mxCell>
        <mxCell id="akRX0uBO8aCFeyzsHtay-15" value="" style="endArrow=classic;html=1;rounded=0;dashed=1;" edge="1" parent="1">
          <mxGeometry width="50" height="50" relative="1" as="geometry">
            <mxPoint x="550" y="240" as="sourcePoint" />
            <mxPoint x="600" y="190" as="targetPoint" />
          </mxGeometry>
        </mxCell>
        <mxCell id="akRX0uBO8aCFeyzsHtay-16" value="&amp;lt;&amp;lt;Include&amp;gt;&amp;gt;" style="edgeLabel;html=1;align=center;verticalAlign=middle;resizable=0;points=[];rotation=-45;" vertex="1" connectable="0" parent="akRX0uBO8aCFeyzsHtay-15">
          <mxGeometry x="0.3988" relative="1" as="geometry">
            <mxPoint x="-28" as="offset" />
          </mxGeometry>
        </mxCell>
        <mxCell id="akRX0uBO8aCFeyzsHtay-17" value="" style="endArrow=classic;html=1;rounded=0;dashed=1;" edge="1" parent="1">
          <mxGeometry width="50" height="50" relative="1" as="geometry">
            <mxPoint x="488" y="139.41" as="sourcePoint" />
            <mxPoint x="563" y="139.41" as="targetPoint" />
          </mxGeometry>
        </mxCell>
        <mxCell id="akRX0uBO8aCFeyzsHtay-18" value="&amp;lt;&amp;lt;Extends&amp;gt;&amp;gt;" style="edgeLabel;html=1;align=center;verticalAlign=middle;resizable=0;points=[];" vertex="1" connectable="0" parent="akRX0uBO8aCFeyzsHtay-17">
          <mxGeometry x="-0.0384" y="-5" relative="1" as="geometry">
            <mxPoint y="-24" as="offset" />
          </mxGeometry>
        </mxCell>
      </root>
    </mxGraphModel>
  </diagram>
</mxfile>
